<?xml version="1.0" encoding="utf-8"?>
<svg version="1.1" id="Layer_1" xmlns="http://www.w3.org/2000/svg" xmlns:xlink="http://www.w3.org/1999/xlink" x="0px" y="0px"
	 viewBox="0 0 595.3 238.9" style="enable-background:new 0 0 595.3 238.9;" xml:space="preserve">
<style type="text/css">
	.st0{fill:#FF6400;}
</style>
<g>
	<g>
		<path class="st0" d="M125.3,88.7H12.7l20.4,48.5C45.5,130.7,113.8,94.1,125.3,88.7z"/>
		<path class="st0" d="M126.7,88.7c-3.3,8.5-40.3,99.2-40.3,99.2l-2.6-52.2l-50.4,2.4l38.7,92.2h36l59.5-141.7L126.7,88.7
			L126.7,88.7z"/>
	</g>
	<rect x="183.1" y="88.7" class="st0" width="36.8" height="141.6"/>
	<polygon class="st0" points="503.4,230.3 538.9,230.3 584.3,88.7 548.2,88.7 520.6,183.2 496.5,88.7 460.9,88.7 436,183.2 
		409,88.7 373.3,88.7 418,230.3 454.1,230.3 478.5,137.6 	"/>
	<path class="st0" d="M353.9,106.4C341.8,92.6,325,85.5,304,85.5c-18.6,0-34.2,6.7-46.5,19.9c-12.2,13.2-18.3,31.8-18.3,55.1
		c0,19.6,4.7,36,14,48.9c11.8,16,30.1,24.1,54.6,24.1c15.5,0,28.6-3.6,38.9-10.8c9.4-6.4,15-14.1,21.3-27.7c2.6-5.6,2.9-9.4,2.9-9.4
		h-38.5v0.1c-2.1,7.1-5.1,12.2-9.1,15.4c-4.1,3.2-9.2,4.9-15.1,4.9c-8.7,0-16.2-3.2-22.1-9.5s-9-15.1-9.2-26.4v-0.4h94.4
		C371.9,141.6,366,120.2,353.9,106.4z M277.6,147.8v-0.4c-0.1-10.4,2.6-18.6,8.1-24.7c5.4-6,12.4-9.1,20.6-9.1
		c7.8,0,14.5,2.9,19.9,8.6c5.4,5.8,8.3,14.2,8.6,25.1v0.4L277.6,147.8L277.6,147.8z"/>
</g>
<g>
	<path class="st0" d="M13.3,33.1h10.4v5.5c1.6-3.1,3.8-4.7,4.6-5.1c1.6-1,3.7-1.6,6.1-1.6c1.8,0,3.2,0.4,4.4,0.8l-1.4,9.7
		C36,41.5,34.7,41,32.6,41c-2,0-4.8,0.4-6.9,3c-2,2.5-2,5.6-2,8.1v17.7H13.3V33.1z"/>
	<path class="st0" d="M79,59.6c-1.1,2.7-5.3,11.5-18.1,11.5c-5.9,0-10.4-1.7-14.1-5.2c-4.1-3.8-5.8-8.6-5.8-14.3
		c0-7.3,3-11.8,5.6-14.4C50.9,33,56,32,60.4,32c7.5,0,11.8,3,14.3,6c3.9,4.7,4.4,10.4,4.4,14.4v0.8H51.8c0,2.2,0.6,4.6,1.8,6.2
		c1.1,1.5,3.4,3.5,7.4,3.5c3.9,0,6.9-1.9,8.6-4.8L79,59.6z M69.5,46.6c-0.8-5-4.9-7.4-8.7-7.4s-7.8,2.5-8.7,7.4H69.5z"/>
	<path class="st0" d="M116.3,33.1h10.4v36.8h-10.4v-4.8c-3.7,5.3-8.7,5.9-11.3,5.9c-11.3,0-18.8-8.8-18.8-19.6
		c0-10.9,7.4-19.5,18.2-19.5c2.8,0,8.3,0.5,11.8,5.9v-4.7H116.3z M96.9,51.5c0,5.9,4.2,10.4,10.2,10.4c5.9,0,10.2-4.6,10.2-10.4
		c0-5.9-4.2-10.4-10.2-10.4C101.2,41.1,96.9,45.6,96.9,51.5z"/>
	<path class="st0" d="M146,8v61.9h-10.4V8H146z"/>
	<path class="st0" d="M192.8,59.6c-1.1,2.7-5.3,11.5-18.1,11.5c-5.9,0-10.4-1.7-14.1-5.2c-4.1-3.8-5.8-8.6-5.8-14.3
		c0-7.3,3-11.8,5.6-14.4c4.3-4.2,9.4-5.2,13.8-5.2c7.5,0,11.8,3,14.3,6c3.9,4.7,4.4,10.4,4.4,14.4v0.8h-27.5c0,2.2,0.6,4.6,1.8,6.2
		c1.1,1.5,3.4,3.5,7.4,3.5c3.9,0,6.9-1.9,8.6-4.8L192.8,59.6z M183.2,46.6c-0.8-5-4.9-7.4-8.7-7.4s-7.8,2.5-8.7,7.4H183.2z"/>
	<path class="st0" d="M222.6,41.9c-2.5-2.3-4.9-2.5-6-2.5c-2.5,0-4,1.2-4,3c0,0.9,0.4,2.4,3.3,3.3l2.5,0.8c2.9,0.9,7.2,2.4,9.3,5.3
		c1.1,1.5,1.9,3.7,1.9,6.1c0,3.3-1.1,6.6-4.1,9.3s-6.5,3.9-11,3.9c-7.6,0-14.5-3.7-16.8-6.1l7.9-6.3c2,2.4,5.1,4.2,8.1,4.2
		c2.9,0,5.1-1.4,5.1-4c0-2.3-1.9-3.2-3.2-3.7l-2.4-0.8c-2.6-0.9-5.7-2.1-7.9-4.4c-1.7-1.8-2.8-4.1-2.8-7c0-3.6,1.7-6.5,3.8-8.3
		c2.9-2.3,6.6-2.6,9.6-2.6c2.7,0,7,0.3,11.7,3.9L222.6,41.9z"/>
	<path class="st0" d="M248.1,42v27.9h-10.4V42h-4.1v-8.8h4.1V20.6h10.4v12.6h7.1V42H248.1z"/>
	<path class="st0" d="M289.6,33.1H300v36.8h-10.4v-4.8c-3.7,5.3-8.7,5.9-11.3,5.9c-11.3,0-18.8-8.8-18.8-19.6
		c0-10.9,7.4-19.5,18.2-19.5c2.8,0,8.3,0.5,11.8,5.9L289.6,33.1L289.6,33.1z M270.3,51.5c0,5.9,4.2,10.4,10.2,10.4
		c5.9,0,10.2-4.6,10.2-10.4c0-5.9-4.2-10.4-10.2-10.4S270.3,45.6,270.3,51.5z"/>
	<path class="st0" d="M321.1,42v27.9h-10.4V42h-4.1v-8.8h4.1V20.6h10.4v12.6h7.1V42H321.1z"/>
	<path class="st0" d="M370.5,59.6c-1.1,2.7-5.3,11.5-18.1,11.5c-5.9,0-10.4-1.7-14.1-5.2c-4.1-3.8-5.8-8.6-5.8-14.3
		c0-7.3,3-11.8,5.6-14.4c4.3-4.2,9.4-5.2,13.8-5.2c7.5,0,11.8,3,14.3,6c3.9,4.7,4.4,10.4,4.4,14.4v0.8h-27.5c0,2.2,0.6,4.6,1.8,6.2
		c1.1,1.5,3.4,3.5,7.4,3.5c3.9,0,6.9-1.9,8.6-4.8L370.5,59.6z M361,46.6c-0.8-5-4.9-7.4-8.7-7.4c-3.8,0-7.8,2.5-8.7,7.4H361z"/>
</g>
</svg>
